<svg data-v-423bf9ae="" xmlns="http://www.w3.org/2000/svg" viewBox="0 0 285.26078776528794 60" class="font"><!----><!----><!----><g data-v-423bf9ae="" id="ba0031d9-6f1a-4cfa-b354-7281978b51f5" fill="#629A40" transform="matrix(4.535147549208299,0,0,4.535147549208299,-2.0861707020156928,-0.9523800993059659)"><path d="M5.25 9.66C5.28 9.97 5.33 10.30 5.54 10.50L7.11 10.50C6.86 10.23 6.72 9.76 6.72 9.02L6.72 5.92C6.72 3.95 5.70 3.01 3.78 3.01C2.39 3.01 1.05 3.53 0.69 5.21L2.09 5.59C2.30 4.79 2.79 4.27 3.67 4.27C4.61 4.27 5.17 4.75 5.17 5.64L5.17 5.88C4.80 6.05 4.09 6.17 3.32 6.24C1.65 6.43 0.46 7.04 0.46 8.61C0.46 10.04 1.60 10.71 2.93 10.71C3.79 10.71 4.56 10.43 5.25 9.66ZM5.17 8.41C4.83 8.90 4.06 9.51 3.22 9.51C2.58 9.51 2.06 9.24 2.06 8.53C2.04 7.67 2.79 7.48 3.51 7.35C4.21 7.24 4.86 7.08 5.17 6.96ZM10.08 10.50L10.08 0.21L8.53 0.77L8.53 10.50ZM16.20 9.66C16.23 9.97 16.28 10.30 16.49 10.50L18.06 10.50C17.81 10.23 17.67 9.76 17.67 9.02L17.67 5.92C17.67 3.95 16.65 3.01 14.73 3.01C13.34 3.01 12.00 3.53 11.63 5.21L13.03 5.59C13.24 4.79 13.73 4.27 14.62 4.27C15.55 4.27 16.11 4.75 16.11 5.64L16.11 5.88C15.75 6.05 15.04 6.17 14.27 6.24C12.60 6.43 11.41 7.04 11.41 8.61C11.41 10.04 12.54 10.71 13.87 10.71C14.74 10.71 15.51 10.43 16.20 9.66ZM16.11 8.41C15.78 8.90 15.01 9.51 14.17 9.51C13.52 9.51 13.01 9.24 13.01 8.53C12.99 7.67 13.73 7.48 14.46 7.35C15.16 7.24 15.81 7.08 16.11 6.96ZM19.42 13.27C19.68 13.37 19.98 13.44 20.31 13.44C21.56 13.44 22.20 12.57 22.74 11.16L25.68 3.22L24.15 3.22L22.22 8.58L20.26 3.22L18.66 3.22L21.49 10.43L21.25 11.07C20.96 11.80 20.59 12.07 20.05 12.07C19.74 12.07 19.52 12.00 19.28 11.91L19.42 13.27ZM32.76 7.28C32.77 7.21 32.77 6.85 32.77 6.66C32.77 4.44 31.47 3.01 29.40 3.01C27.44 3.01 25.97 4.35 25.97 6.86C25.97 9.37 27.44 10.71 29.40 10.71C31.05 10.71 32.21 9.93 32.68 8.37L31.21 8.06C31.00 8.93 30.30 9.42 29.50 9.42C28.49 9.42 27.62 8.76 27.52 7.28ZM29.39 4.31C30.44 4.31 31.11 5.05 31.16 6.13L27.57 6.13C27.75 4.89 28.57 4.31 29.39 4.31ZM35.67 10.50L35.67 8.86L34.10 8.86L34.10 10.50ZM40.66 9.20C40.43 9.27 40.22 9.28 40.08 9.28C39.42 9.28 39.42 8.83 39.42 8.20L39.42 4.44L40.71 4.44L40.71 3.22L39.42 3.22L39.42 0.85L37.87 1.46L37.87 3.22L36.83 3.22L36.83 4.44L37.87 4.44L37.87 8.37C37.87 9.80 38.19 10.64 39.72 10.64C39.98 10.64 40.52 10.57 40.80 10.47ZM48.44 7.28C48.45 7.21 48.45 6.85 48.45 6.66C48.45 4.44 47.15 3.01 45.08 3.01C43.12 3.01 41.65 4.35 41.65 6.86C41.65 9.37 43.12 10.71 45.08 10.71C46.73 10.71 47.89 9.93 48.36 8.37L46.89 8.06C46.68 8.93 45.98 9.42 45.18 9.42C44.17 9.42 43.30 8.76 43.20 7.28ZM45.07 4.31C46.12 4.31 46.79 5.05 46.84 6.13L43.25 6.13C43.43 4.89 44.25 4.31 45.07 4.31ZM50.89 6.86C50.89 5.10 51.70 4.31 52.72 4.31C53.51 4.31 54.12 4.75 54.35 5.81L55.86 5.52C55.47 3.85 54.29 3.01 52.72 3.01C50.75 3.01 49.34 4.35 49.34 6.86C49.34 9.37 50.75 10.71 52.72 10.71C54.29 10.71 55.47 9.88 55.86 8.22L54.35 7.92C54.12 8.97 53.51 9.42 52.72 9.42C51.69 9.42 50.89 8.62 50.89 6.86ZM58.72 10.50L58.72 6.54C58.72 5.10 59.44 4.33 60.44 4.33C61.43 4.33 61.81 4.98 61.81 6.09L61.81 10.50L63.36 10.50L63.36 6.03C63.36 4.30 62.82 3.01 60.80 3.01C59.85 3.01 59.16 3.39 58.72 4.19L58.72 0.42L57.16 0.42L57.16 10.50Z"></path></g><!----><!----></svg>